<svg width="25" height="21" viewBox="0 0 25 21" fill="none" xmlns="http://www.w3.org/2000/svg">
<path d="M13.8832 2.85282C13.2128 4.86396 13.8973 6.89386 15.4117 7.39079C16.9261 7.88771 18.6984 6.65946 19.3688 4.64832C20.0393 2.63717 19.3548 0.607274 17.8404 0.110348C16.326 -0.386579 14.5537 0.841673 13.8832 2.85282ZM19.7955 7.80802C18.9093 9.32692 19.125 11.0943 20.2737 11.7506C21.4224 12.4069 23.0728 11.7084 23.9542 10.1895C24.8357 8.6706 24.6294 6.90324 23.4807 6.24692C22.332 5.5906 20.6816 6.28911 19.8002 7.80802H19.7955ZM21.2583 17.3059C18.8015 10.6817 14.4365 8.99876 12.5001 8.99876C10.5638 8.99876 6.19873 10.6817 3.74193 17.3059C3.57315 17.7606 3.49813 18.2482 3.49813 18.7357V18.8107C3.49813 20.0202 4.47803 21 5.68768 21C6.22686 21 6.76135 20.9344 7.28178 20.8031L11.4077 19.7717C12.125 19.5936 12.8752 19.5936 13.5925 19.7717L17.7185 20.8031C18.2389 20.9344 18.7734 21 19.3126 21C20.5222 21 21.5021 20.0202 21.5021 18.8107V18.7357C21.5021 18.2482 21.4271 17.7606 21.2583 17.3059ZM4.72653 11.7506C5.87522 11.0943 6.09089 9.32692 5.20476 7.80802C4.31862 6.28911 2.67295 5.5906 1.52426 6.24692C0.375563 6.90324 0.159891 8.6706 1.04602 10.1895C1.93216 11.7084 3.57784 12.4069 4.72653 11.7506ZM9.96362 7.39079C11.478 6.89386 12.1625 4.86396 11.4921 2.85282C10.8216 0.841673 9.04936 -0.386579 7.53496 0.110348C6.02056 0.607274 5.33603 2.63717 6.0065 4.64832C6.67696 6.65946 8.44922 7.88771 9.96362 7.39079Z" fill="white"/>
</svg>
