<svg width="89" height="78" viewBox="0 0 89 78" fill="none" xmlns="http://www.w3.org/2000/svg">
<path d="M89 36.2143C89 56.2192 69.0805 72.4286 44.5026 72.4286C38.0539 72.4286 31.9356 71.3143 26.4081 69.3121C24.3397 70.8268 20.9676 72.8987 16.9698 74.6397C12.7982 76.4505 7.77484 78 2.78627 78C1.65645 78 0.648304 77.321 0.213759 76.2763C-0.220786 75.2317 0.022559 74.0478 0.80474 73.2469L0.856886 73.1946C0.909031 73.1424 0.978558 73.0728 1.08285 72.9509C1.27405 72.742 1.56954 72.4112 1.93456 71.9585C2.64721 71.0879 3.60321 69.7996 4.57659 68.1978C6.31477 65.3076 7.96604 61.5121 8.2963 57.2464C3.08176 51.3268 0.0051772 44.0665 0.0051772 36.2143C0.0051772 16.2094 19.9247 0 44.5026 0C69.0805 0 89 16.2094 89 36.2143Z" fill="white"/>
</svg>
