<svg width="26" height="21" viewBox="0 0 26 21" fill="none" xmlns="http://www.w3.org/2000/svg">
<path d="M25.4934 10.4774C25.4934 11.2156 24.8422 11.7938 24.1042 11.7938H22.7149L22.7453 18.3632C22.7453 18.4739 22.7367 18.5847 22.7236 18.6954V19.3597C22.7236 20.266 21.9465 21 20.9871 21H20.2924C20.2447 21 20.1969 21 20.1492 20.9959C20.0884 21 20.0276 21 19.9668 21L18.5559 20.9959H17.514C16.5545 20.9959 15.7774 20.2619 15.7774 19.3556V18.3714V15.7469C15.7774 15.0211 15.1566 14.4347 14.3881 14.4347H11.6096C10.8412 14.4347 10.2204 15.0211 10.2204 15.7469V18.3714V19.3556C10.2204 20.2619 9.44328 20.9959 8.48384 20.9959H7.4419H6.05699C5.99187 20.9959 5.92675 20.9918 5.86163 20.9877C5.80953 20.9918 5.75744 20.9959 5.70534 20.9959H5.01072C4.05127 20.9959 3.27416 20.2619 3.27416 19.3556V14.7627C3.27416 14.7258 3.27416 14.6848 3.2785 14.6479V11.7897H1.88925C1.1078 11.7897 0.5 11.2156 0.5 10.4733C0.5 10.1043 0.630242 9.77622 0.93414 9.48916L12.0611 0.328061C12.365 0.0410076 12.7124 0 13.0163 0C13.3202 0 13.6675 0.0820152 13.928 0.287053L25.0159 9.49326C25.3632 9.78032 25.5369 10.1084 25.4934 10.4774Z" fill="white"/>
</svg>
