<svg width="20" height="21" viewBox="0 0 20 21" fill="none" xmlns="http://www.w3.org/2000/svg">
<path d="M9.4317 0.241992L3.12946 6.94805C2.96406 7.12031 2.875 7.35 2.875 7.58379C2.875 8.10879 3.31183 8.53125 3.85469 8.53125H4.91071L1.79777 11.5418C1.61964 11.7141 1.51786 11.952 1.51786 12.198C1.51786 12.7107 1.94621 13.125 2.47634 13.125H3.89286L0.729018 16.7959C0.58058 16.9682 0.5 17.1855 0.5 17.4111C0.5 17.9443 0.945313 18.375 1.49665 18.375H8.64286V19.6875C8.64286 20.4135 9.24933 21 10 21C10.7507 21 11.3571 20.4135 11.3571 19.6875V18.375H18.5033C19.0547 18.375 19.5 17.9443 19.5 17.4111C19.5 17.1855 19.4194 16.9682 19.271 16.7959L16.1071 13.125H17.5237C18.0538 13.125 18.4821 12.7107 18.4821 12.198C18.4821 11.952 18.3804 11.7141 18.2022 11.5418L15.0893 8.53125H16.1453C16.6839 8.53125 17.125 8.10879 17.125 7.58379C17.125 7.35 17.0359 7.12031 16.8705 6.94805L10.5683 0.241992C10.4241 0.0861328 10.2163 0 10 0C9.78371 0 9.57589 0.0861328 9.4317 0.241992Z" fill="white"/>
</svg>
