<svg width="19" height="16" viewBox="0 0 19 16" fill="none" xmlns="http://www.w3.org/2000/svg">
<path d="M14.0236 2.63929L18.5807 7.025C18.8479 7.28214 19 7.63571 19 8C19 8.36429 18.8479 8.71786 18.5807 8.975L14.0236 13.3607C13.7861 13.5893 13.467 13.7143 13.133 13.7143C12.4391 13.7143 11.875 13.1714 11.875 12.5036V10.2857H7.125C6.46816 10.2857 5.9375 9.775 5.9375 9.14286V6.85714C5.9375 6.225 6.46816 5.71429 7.125 5.71429H11.875V3.49643C11.875 2.82857 12.4391 2.28571 13.133 2.28571C13.467 2.28571 13.7861 2.41429 14.0236 2.63929ZM5.9375 2.28571H3.5625C2.90566 2.28571 2.375 2.79643 2.375 3.42857V12.5714C2.375 13.2036 2.90566 13.7143 3.5625 13.7143H5.9375C6.59434 13.7143 7.125 14.225 7.125 14.8571C7.125 15.4893 6.59434 16 5.9375 16H3.5625C1.5957 16 0 14.4643 0 12.5714V3.42857C0 1.53571 1.5957 0 3.5625 0H5.9375C6.59434 0 7.125 0.510714 7.125 1.14286C7.125 1.775 6.59434 2.28571 5.9375 2.28571Z" fill="white"/>
</svg>
