<svg width="28" height="24" viewBox="0 0 28 24" fill="none" xmlns="http://www.w3.org/2000/svg">
<path d="M12.125 0H10.25C9.00781 0 8 1.00781 8 2.25V7.5C8 9.15469 9.34531 10.5 11 10.5H17C18.6547 10.5 20 9.15469 20 7.5V2.25C20 1.00781 18.9922 0 17.75 0H15.875V3.75C15.875 4.1625 15.5375 4.5 15.125 4.5H12.875C12.4625 4.5 12.125 4.1625 12.125 3.75V0ZM3.5 12C1.84531 12 0.5 13.3453 0.5 15V21C0.5 22.6547 1.84531 24 3.5 24H11C12.6547 24 14 22.6547 14 21V15C14 13.3453 12.6547 12 11 12H9.125V15.75C9.125 16.1625 8.7875 16.5 8.375 16.5H6.125C5.7125 16.5 5.375 16.1625 5.375 15.75V12H3.5ZM17 24H24.5C26.1547 24 27.5 22.6547 27.5 21V15C27.5 13.3453 26.1547 12 24.5 12H22.625V15.75C22.625 16.1625 22.2875 16.5 21.875 16.5H19.625C19.2125 16.5 18.875 16.1625 18.875 15.75V12H17C16.2969 12 15.65 12.2391 15.1391 12.6469C15.3687 13.1344 15.5 13.6781 15.5 14.25V21.75C15.5 22.3219 15.3687 22.8656 15.1391 23.3531C15.65 23.7609 16.2969 24 17 24Z" fill="white"/>
</svg>
