<svg width="22" height="21" viewBox="0 0 22 21" fill="none" xmlns="http://www.w3.org/2000/svg">
<path d="M8 2.25C8 1.00781 9.00781 0 10.25 0H11.75C12.9922 0 14 1.00781 14 2.25V18.75C14 19.9922 12.9922 21 11.75 21H10.25C9.00781 21 8 19.9922 8 18.75V2.25ZM0.5 11.25C0.5 10.0078 1.50781 9 2.75 9H4.25C5.49219 9 6.5 10.0078 6.5 11.25V18.75C6.5 19.9922 5.49219 21 4.25 21H2.75C1.50781 21 0.5 19.9922 0.5 18.75V11.25ZM17.75 3H19.25C20.4922 3 21.5 4.00781 21.5 5.25V18.75C21.5 19.9922 20.4922 21 19.25 21H17.75C16.5078 21 15.5 19.9922 15.5 18.75V5.25C15.5 4.00781 16.5078 3 17.75 3Z" fill="white"/>
</svg>
