<svg width="19" height="21" viewBox="0 0 19 21" fill="none" xmlns="http://www.w3.org/2000/svg">
<path d="M9.5 10.5C10.864 10.5 12.1721 9.94688 13.1365 8.96231C14.101 7.97775 14.6429 6.64239 14.6429 5.25C14.6429 3.85761 14.101 2.52226 13.1365 1.53769C12.1721 0.553123 10.864 0 9.5 0C8.13603 0 6.82792 0.553123 5.86345 1.53769C4.89898 2.52226 4.35714 3.85761 4.35714 5.25C4.35714 6.64239 4.89898 7.97775 5.86345 8.96231C6.82792 9.94688 8.13603 10.5 9.5 10.5ZM7.66384 12.4688C3.70625 12.4688 0.5 15.7418 0.5 19.7818C0.5 20.4545 1.03438 21 1.6933 21H17.3067C17.9656 21 18.5 20.4545 18.5 19.7818C18.5 15.7418 15.2938 12.4688 11.3362 12.4688H7.66384Z" fill="white"/>
</svg>
